<svg width="28" height="25" viewBox="0 0 28 25" fill="none" xmlns="http://www.w3.org/2000/svg">
<path d="M23.6319 0H4.17034C1.86712 0 0 1.66226 0 3.71276V21.039C0 23.0895 1.86712 24.7517 4.17034 24.7517H23.6319C25.9351 24.7517 27.8023 23.0895 27.8023 21.039V3.71276C27.8023 1.66226 25.9351 0 23.6319 0Z" fill="#1877F2"/>
<path d="M19.3095 15.9534L19.9286 12.376H16.0732V10.0555C16.0732 9.079 16.6108 8.12181 18.3375 8.12181H20.0915V5.07619C20.0915 5.07619 18.5004 4.83447 16.98 4.83447C13.8034 4.83447 11.7291 6.54582 11.7291 9.64945V12.376H8.19949V15.9534H11.7291V24.7519H16.0732V15.9534H19.3095Z" fill="white"/>
</svg>
