<svg width="28" height="26" viewBox="0 0 28 26" fill="none" xmlns="http://www.w3.org/2000/svg">
<path d="M23.6815 0.319824H4.17908C1.87104 0.319824 0 1.98557 0 4.04037V21.4029C0 23.4577 1.87104 25.1234 4.17908 25.1234H23.6815C25.9895 25.1234 27.8605 23.4577 27.8605 21.4029V4.04037C27.8605 1.98557 25.9895 0.319824 23.6815 0.319824Z" fill="black"/>
<path d="M23.6815 0.319824H4.17908C1.87104 0.319824 0 1.98557 0 4.04037V21.4029C0 23.4577 1.87104 25.1234 4.17908 25.1234H23.6815C25.9895 25.1234 27.8605 23.4577 27.8605 21.4029V4.04037C27.8605 1.98557 25.9895 0.319824 23.6815 0.319824Z" fill="url(#paint0_radial_75_41)"/>
<path d="M23.6815 0H4.17908C1.87104 0 0 1.66574 0 3.72054V21.0831C0 23.1379 1.87104 24.8036 4.17908 24.8036H23.6815C25.9895 24.8036 27.8605 23.1379 27.8605 21.0831V3.72054C27.8605 1.66574 25.9895 0 23.6815 0Z" fill="url(#paint1_linear_75_41)"/>
<path d="M17.9026 5.26074H9.95795C7.52368 5.26074 5.55032 7.01758 5.55032 9.18475V16.2577C5.55032 18.4248 7.52368 20.1817 9.95795 20.1817H17.9026C20.3368 20.1817 22.3102 18.4248 22.3102 16.2577V9.18475C22.3102 7.01758 20.3368 5.26074 17.9026 5.26074Z" stroke="white" stroke-width="2"/>
<path d="M13.9303 16.2104C16.0941 16.2104 17.8482 14.6485 17.8482 12.7219C17.8482 10.7953 16.0941 9.2334 13.9303 9.2334C11.7665 9.2334 10.0124 10.7953 10.0124 12.7219C10.0124 14.6485 11.7665 16.2104 13.9303 16.2104Z" stroke="white" stroke-width="2"/>
<path d="M19 8.79106C19.5523 8.79106 20 8.39723 20 7.9114C20 7.42558 19.5523 7.03174 19 7.03174C18.4477 7.03174 18 7.42558 18 7.9114C18 8.39723 18.4477 8.79106 19 8.79106Z" fill="white"/>
<defs>
<radialGradient id="paint0_radial_75_41" cx="0" cy="0" r="1" gradientUnits="userSpaceOnUse" gradientTransform="translate(11.1442 25.1234) scale(27.8605 24.8036)">
<stop offset="0.1" stop-color="#FFDD55"/>
<stop offset="0.5" stop-color="#FF543E"/>
<stop offset="1" stop-color="#C837AB"/>
</radialGradient>
<linearGradient id="paint1_linear_75_41" x1="0" y1="0" x2="4.45193" y2="25.0031" gradientUnits="userSpaceOnUse">
<stop offset="0.1" stop-color="#3771C8"/>
<stop offset="0.5" stop-color="#6600FF" stop-opacity="0"/>
</linearGradient>
</defs>
</svg>
