<svg width="29" height="26" viewBox="0 0 29 26" fill="none" xmlns="http://www.w3.org/2000/svg">
<path d="M26.432 9.62098e-05H2.10522C1.55326 -0.00490478 1.02162 0.185236 0.626942 0.528798C0.232268 0.872359 0.00680133 1.34128 1.52588e-05 1.83266V23.5777C0.00802856 24.0684 0.234035 24.5362 0.628575 24.8789C1.02312 25.2216 1.55406 25.4111 2.10522 25.4061H26.432C26.984 25.41 27.5153 25.2192 27.9098 24.8755C28.3042 24.5317 28.5298 24.0629 28.5372 23.5715V1.82641C28.5274 1.33647 28.3007 0.869788 27.9065 0.527804C27.5123 0.18582 26.9824 -0.00382332 26.432 9.62098e-05Z" fill="#0076B2"/>
<path d="M4.22448 9.52302H8.46062V21.6575H4.22448V9.52302ZM6.34372 3.48389C6.82959 3.48389 7.30454 3.61218 7.70848 3.85254C8.11243 4.09289 8.42723 4.43452 8.61306 4.83418C8.79888 5.23385 8.84739 5.67361 8.75243 6.09782C8.65747 6.52203 8.42332 6.91164 8.0796 7.21736C7.73588 7.52307 7.29803 7.73116 6.82144 7.81529C6.34486 7.89943 5.85095 7.85583 5.4022 7.69001C4.95345 7.5242 4.57003 7.24361 4.30044 6.88376C4.03084 6.5239 3.88719 6.10094 3.88765 5.66839C3.88827 5.08883 4.14731 4.5332 4.60784 4.12359C5.06838 3.71397 5.69274 3.48389 6.34372 3.48389Z" fill="white"/>
<path d="M11.1178 9.52314H15.1785V11.1891H15.2347C15.8008 10.2353 17.1808 9.22951 19.2416 9.22951C23.5315 9.22118 24.3268 11.7347 24.3268 14.9938V21.6576H20.0907V15.7539C20.0907 14.3482 20.0626 12.5385 17.8896 12.5385C15.7165 12.5385 15.347 14.0712 15.347 15.6622V21.6576H11.1178V9.52314Z" fill="white"/>
</svg>
