<svg width="28" height="26" viewBox="0 0 28 26" fill="none" xmlns="http://www.w3.org/2000/svg">
<path d="M26.573 0H1.39858C1.02765 0 0.671919 0.132864 0.409634 0.369364C0.14735 0.605863 0 0.926625 0 1.26109V23.9606C0 24.2951 0.14735 24.6159 0.409634 24.8524C0.671919 25.0889 1.02765 25.2217 1.39858 25.2217H26.573C26.9439 25.2217 27.2997 25.0889 27.562 24.8524C27.8242 24.6159 27.9716 24.2951 27.9716 23.9606V1.26109C27.9716 0.926625 27.8242 0.605863 27.562 0.369364C27.2997 0.132864 26.9439 0 26.573 0ZM21.9843 11.003C21.8318 11.0168 21.678 11.0232 21.5255 11.0244C20.6958 11.0254 19.8788 10.8399 19.1484 10.4848C18.4181 10.1296 17.7974 9.61599 17.3424 8.99028V15.9174C17.3427 16.9304 17.0098 17.9207 16.3858 18.7631C15.7618 19.6055 14.8748 20.2621 13.8369 20.6499C12.799 21.0377 11.6569 21.1392 10.5551 20.9416C9.45319 20.7441 8.44104 20.2563 7.64665 19.54C6.85225 18.8237 6.31129 17.911 6.09219 16.9175C5.87308 15.9239 5.98567 14.8941 6.41573 13.9583C6.84578 13.0224 7.57397 12.2226 8.50819 11.66C9.44242 11.0973 10.5407 10.7972 11.6642 10.7974C11.783 10.7974 11.8977 10.8075 12.0152 10.8138V13.336C11.6239 13.2932 11.227 13.3231 10.849 13.4237C10.471 13.5244 10.1198 13.6937 9.81698 13.9212C9.51417 14.1487 9.26616 14.4296 9.08819 14.7467C8.91021 15.0639 8.80604 15.4104 8.78206 15.7652C8.75809 16.1199 8.81482 16.4754 8.94877 16.8096C9.08273 17.1439 9.29107 17.4499 9.561 17.7089C9.83093 17.9679 10.1567 18.1743 10.5184 18.3156C10.8801 18.4569 11.27 18.53 11.6642 18.5304C12.442 18.5431 13.1943 18.28 13.7592 17.7977C14.3242 17.3154 14.6566 16.6525 14.6851 15.9515L14.7131 4.18428H17.3899C17.5122 5.23282 18.0393 6.20924 18.8791 6.94278C19.719 7.67633 20.8181 8.1203 21.9843 8.19706V11.003Z" fill="white"/>
</svg>
