<svg width="29" height="26" viewBox="0 0 29 26" fill="none" xmlns="http://www.w3.org/2000/svg">
<path d="M24.2009 0H4.27074C1.91207 0 0 1.70228 0 3.80214V21.5455C0 23.6453 1.91207 25.3476 4.27074 25.3476H24.2009C26.5595 25.3476 28.4716 23.6453 28.4716 21.5455V3.80214C28.4716 1.70228 26.5595 0 24.2009 0Z" fill="#1DA1F2"/>
<path d="M24.3009 7.52517C23.6417 7.91448 22.8677 8.12121 22.0766 8.11925C22.9224 7.67568 23.5556 6.97095 23.8561 6.13897C23.155 6.66662 22.2715 6.96375 21.3537 6.98059C20.7485 6.4288 19.9587 6.06662 19.1027 5.94839C18.2467 5.83016 17.3707 5.96227 16.6062 6.32489C15.8418 6.68751 15.23 7.26108 14.8627 7.95953C14.4955 8.65797 14.3926 9.44361 14.5694 10.1985C13.012 10.1253 11.4893 9.76135 10.1002 9.1302C8.71104 8.49905 7.48654 7.61486 6.50618 6.53502C6.02645 7.30785 5.88598 8.21169 6.112 9.07144C6.33802 9.93119 6.91443 10.6857 7.72956 11.1887C7.11438 11.1964 6.50546 11.0778 5.95009 10.8421C5.96505 11.6396 6.27999 12.4096 6.84455 13.0289C7.40911 13.6482 8.19066 14.081 9.06417 14.2581C8.4827 14.3933 7.87451 14.4102 7.2847 14.3076C7.53913 15.0141 8.03484 15.6323 8.70271 16.076C9.37058 16.5197 10.1773 16.7669 11.0105 16.783C9.25087 17.7333 7.22959 18.2303 5.17157 18.2187C6.89518 19.2205 8.89725 19.7768 10.9549 19.8256C13.0126 19.8745 15.0451 19.414 16.8262 18.4954C18.6074 17.5768 20.0672 16.2362 21.0433 14.6228C22.0193 13.0093 22.4733 11.1864 22.3546 9.35693C23.0884 8.82268 23.7425 8.2071 24.3009 7.52517Z" fill="white"/>
</svg>
