<svg width="34" height="22" viewBox="0 0 34 22" fill="none" xmlns="http://www.w3.org/2000/svg">
<path d="M13.448 14.5175L22.6074 10.2989L13.448 6.04492V14.5175Z" fill="white"/>
<path opacity="0.12" d="M13.448 6.04492L21.4823 10.8181L22.6074 10.2995L13.448 6.04492Z" fill="#420000"/>
<path d="M33.5274 4.57214C33.5274 4.57214 33.1966 2.49818 32.1778 1.57904C30.8944 0.377084 29.4522 0.377084 28.7774 0.306381C24.054 0 16.9489 0 16.9489 0H16.9357C16.9357 0 9.83064 0 5.08071 0.306381C4.41916 0.377084 2.97698 0.377084 1.68034 1.57904C0.674781 2.49818 0.344006 4.57214 0.344006 4.57214C0.344006 4.57214 0 7.02319 0 9.46245V11.7485C0 14.1878 0.344006 16.627 0.344006 16.627C0.344006 16.627 0.674782 18.701 1.69357 19.6201C2.97698 20.8221 4.67055 20.7867 5.42471 20.9046C8.13707 21.1403 16.9357 21.211 16.9357 21.211C16.9357 21.211 24.054 21.1992 28.7907 20.8928C29.4522 20.8221 30.8944 20.8221 32.1911 19.6201C33.2098 18.701 33.5406 16.627 33.5406 16.627C33.5406 16.627 33.8846 14.1878 33.8846 11.7485V9.46245C33.8714 7.02319 33.5274 4.57214 33.5274 4.57214ZM13.4427 14.5177V6.04512L22.5986 10.2991L13.4427 14.5177Z" fill="url(#paint0_linear_92_3)"/>
<defs>
<linearGradient id="paint0_linear_92_3" x1="4335.54" y1="3.81797e-05" x2="4335.54" y2="3819.12" gradientUnits="userSpaceOnUse">
<stop stop-color="#E52D27"/>
<stop offset="1" stop-color="#BF171D"/>
</linearGradient>
</defs>
</svg>
